# xmcd
#
# Track frame offsets: 
#        150
#        20588
#        40557
#        57007
#        70373
#        80929
#        101393
#        116585
#        129645
#        148898
#        171470
#        193375
#
# Disc length: 2779 seconds
#
# Revision: 2
# Processed by: cddbd v1.5.2PL0 Copyright (c) Steve Scherf et al.
# Submitted via: ExactAudioCopyFreeDBPlugin 1.0
#
DISCID=b40ad90c
DTITLE=Jay-Z and Kanye West - Watch the Throne
DYEAR=2011
DGENRE=Rap
TTITLE0=Jay-Z and Kanye West feat. Frank Ocean - No Church in the Wild
TTITLE1=Jay-Z and Kanye West feat. Beyoncé - Lift Off
TTITLE2=Niggas in Paris
TTITLE3=Jay-Z and Kanye West feat. Otis Redding - Otis
TTITLE4=Gotta Have It
TTITLE5=New Day
TTITLE6=That's My Bitch
TTITLE7=Who Gon Stop Me
TTITLE8=Murder to Excellence
TTITLE9=Welcome to the Jungle
TTITLE10=Jay-Z and Kanye West feat. Frank Ocean - Made in America
TTITLE11=Jay-Z and Kanye West feat. Mr. Hudson - Why I Love You
EXTD=
EXTT0=
EXTT1=
EXTT2=
EXTT3=
EXTT4=
EXTT5=
EXTT6=
EXTT7=
EXTT8=
EXTT9=
EXTT10=
EXTT11=
PLAYORDER=
